<svg width="500" height="500" viewBox="0 0 500 500" fill="none" xmlns="http://www.w3.org/2000/svg">
<path d="M238.401 445.047H45.3022C42.1552 445.047 39.5942 442.487 39.5942 439.339V60.6599C39.5942 57.5129 42.1552 54.9519 45.3022 54.9519H238.401C241.547 54.9519 244.108 57.5129 244.108 60.6599V439.339C244.108 442.487 241.547 445.047 238.401 445.047ZM45.3022 55.2029C42.2922 55.2029 39.8442 57.6509 39.8442 60.6609V439.34C39.8442 442.35 42.2922 444.798 45.3022 444.798H238.401C241.41 444.798 243.858 442.35 243.858 439.34V60.6599C243.858 57.6509 241.41 55.2019 238.401 55.2019L45.3022 55.2029Z" fill="#EBEBEB"/>
<path d="M454.698 445.047H261.599C258.453 445.047 255.892 442.487 255.892 439.339V60.6599C255.892 57.5129 258.453 54.9519 261.599 54.9519H454.698C457.846 54.9519 460.406 57.5129 460.406 60.6599V439.339C460.406 442.487 457.845 445.047 454.698 445.047ZM261.599 55.2029C258.59 55.2029 256.142 57.6509 256.142 60.6609V439.34C256.142 442.35 258.59 444.798 261.599 444.798H454.698C457.708 444.798 460.156 442.35 460.156 439.34V60.6599C460.156 57.6509 457.708 55.2019 454.698 55.2019L261.599 55.2029Z" fill="#EBEBEB"/>
<path d="M113.054 168.247L114.671 171.523L118.286 172.049L115.67 174.599L116.288 178.2L113.054 176.5L109.82 178.2L110.438 174.599L107.821 172.049L111.437 171.523L113.054 168.247Z" fill="#EBEBEB"/>
<path d="M436.705 322.483L438.322 325.759L441.937 326.285L439.321 328.835L439.939 332.436L436.705 330.736L433.471 332.436L434.088 328.835L431.472 326.285L435.088 325.759L436.705 322.483Z" fill="#F5F5F5"/>
<path d="M372.599 417.566L374.216 420.842L377.832 421.367L375.215 423.918L375.833 427.519L372.599 425.819L369.365 427.519L369.983 423.918L367.366 421.367L370.982 420.842L372.599 417.566Z" fill="#F5F5F5"/>
<path d="M225.945 110.154L226.545 111.37L227.887 111.565C228.222 111.614 228.356 112.025 228.113 112.262L227.142 113.209L227.371 114.546C227.428 114.88 227.078 115.134 226.779 114.977L225.578 114.346L224.377 114.977C224.077 115.135 223.727 114.88 223.785 114.546L224.014 113.209L223.043 112.262C222.801 112.026 222.934 111.614 223.269 111.565L224.611 111.37L225.211 110.154C225.362 109.85 225.795 109.85 225.945 110.154Z" fill="#EBEBEB"/>
<path d="M60.7772 402.008L61.3772 403.224L62.7192 403.419C63.0542 403.468 63.1882 403.879 62.9452 404.116L61.9742 405.063L62.2032 406.4C62.2602 406.734 61.9102 406.988 61.6112 406.831L60.4102 406.2L59.2092 406.831C58.9092 406.988 58.5592 406.734 58.6172 406.4L58.8462 405.063L57.8752 404.116C57.6332 403.88 57.7662 403.468 58.1012 403.419L59.4432 403.224L60.0432 402.008C60.1942 401.704 60.6272 401.704 60.7772 402.008Z" fill="#F5F5F5"/>
<path d="M87.7552 97.301L88.3552 98.517L89.6972 98.712C90.0322 98.761 90.1662 99.172 89.9232 99.409L88.9522 100.356L89.1812 101.693C89.2382 102.027 88.8882 102.281 88.5882 102.123L87.3872 101.492L86.1872 102.123C85.8872 102.281 85.5372 102.026 85.5942 101.693L85.8232 100.356L84.8522 99.409C84.6102 99.173 84.7432 98.761 85.0782 98.712L86.4202 98.517L87.0202 97.301C87.1722 96.997 87.6052 96.997 87.7552 97.301Z" fill="#EBEBEB"/>
<path d="M86.1311 338.319C86.1311 339.052 85.5371 339.646 84.8041 339.646C84.0711 339.646 83.4771 339.052 83.4771 338.319C83.4771 337.586 84.0711 336.992 84.8041 336.992C85.5361 336.992 86.1311 337.586 86.1311 338.319Z" fill="#EBEBEB"/>
<path d="M275.671 171.894C275.671 172.627 275.077 173.221 274.344 173.221C273.611 173.221 273.017 172.627 273.017 171.894C273.017 171.161 273.611 170.567 274.344 170.567C275.077 170.567 275.671 171.161 275.671 171.894Z" fill="#EBEBEB"/>
<path d="M206.707 98.4C206.707 99.133 206.113 99.727 205.38 99.727C204.647 99.727 204.053 99.133 204.053 98.4C204.053 97.667 204.647 97.073 205.38 97.073C206.113 97.073 206.707 97.668 206.707 98.4Z" fill="#F5F5F5"/>
<path d="M208.841 422.498C212.79 421.565 215.236 417.607 214.303 413.658C213.371 409.709 209.413 407.263 205.464 408.195C201.514 409.128 199.069 413.086 200.001 417.035C200.934 420.985 204.891 423.43 208.841 422.498Z" fill="#F0F0F0"/>
<path d="M204.597 411.09C203.037 411.09 201.587 411.59 200.407 412.45C200.017 413.35 199.797 414.34 199.797 415.38C199.797 419.44 203.087 422.72 207.147 422.72C208.517 422.72 209.807 422.34 210.907 421.681C210.897 421.671 210.897 421.671 210.907 421.671C211.457 420.651 211.767 419.491 211.767 418.251C211.767 414.3 208.557 411.09 204.597 411.09Z" fill="#E6E6E6"/>
<path d="M147.68 287.645H86.8252V260.17L147.68 187.833H176.795V261.728H191.885V287.645H176.795V310.117H147.68V287.645ZM147.68 261.728V223.89L115.524 261.728H147.68Z" fill="#28292A"/>
<path d="M202.302 249.508C202.302 226.654 206.415 210.662 214.645 201.53C222.874 192.399 235.407 187.833 252.249 187.833C260.34 187.833 266.984 188.832 272.178 190.827C277.372 192.823 281.61 195.42 284.89 198.618C288.17 201.817 290.754 205.179 292.64 208.706C294.527 212.232 296.044 216.347 297.192 221.05C299.433 230.017 300.554 239.367 300.554 249.099C300.554 270.914 296.863 286.881 289.482 296.995C282.1 307.111 269.388 312.167 251.345 312.167C241.229 312.167 233.055 310.553 226.823 307.328C220.589 304.103 215.476 299.373 211.486 293.14C208.586 288.712 206.331 282.656 204.72 274.974C203.107 267.292 202.302 258.804 202.302 249.508ZM235.436 249.59C235.436 264.9 236.789 275.357 239.495 280.962C242.202 286.566 246.125 289.368 251.264 289.368C254.654 289.368 257.593 288.179 260.081 285.8C262.569 283.422 264.4 279.664 265.577 274.524C266.752 269.385 267.34 261.374 267.34 250.493C267.34 234.529 265.987 223.798 263.281 218.303C260.574 212.807 256.515 210.06 251.101 210.06C245.578 210.06 241.587 212.863 239.126 218.467C236.666 224.071 235.436 234.446 235.436 249.59Z" fill="#28292A"/>
<path d="M371.744 287.645H310.889V260.17L371.744 187.833H400.859V261.728H415.949V287.645H400.859V310.117H371.744V287.645ZM371.744 261.728V223.89L339.589 261.728H371.744Z" fill="#28292A"/>
<g opacity="0.3">
<path d="M200.952 145.618C200.952 146.648 200.117 147.483 199.087 147.483C198.057 147.483 197.222 146.648 197.222 145.618C197.222 144.588 198.057 143.753 199.087 143.753C200.117 143.753 200.952 144.588 200.952 145.618Z" fill="#28292A"/>
<path d="M72.9661 217.452C73.6967 217.452 74.2891 216.86 74.2891 216.129C74.2891 215.398 73.6967 214.806 72.9661 214.806C72.2354 214.806 71.6431 215.398 71.6431 216.129C71.6431 216.86 72.2354 217.452 72.9661 217.452Z" fill="#28292A"/>
<path d="M291.054 410.226C292.1 410.226 292.947 409.378 292.947 408.333C292.947 407.287 292.1 406.44 291.054 406.44C290.009 406.44 289.161 407.287 289.161 408.333C289.161 409.378 290.009 410.226 291.054 410.226Z" fill="#28292A"/>
<path d="M336.498 333.323C337.228 333.323 337.821 332.73 337.821 332C337.821 331.269 337.228 330.677 336.498 330.677C335.767 330.677 335.175 331.269 335.175 332C335.175 332.73 335.767 333.323 336.498 333.323Z" fill="#28292A"/>
<path d="M424.173 95.6189C424.173 96.3499 423.581 96.9419 422.85 96.9419C422.119 96.9419 421.527 96.3499 421.527 95.6189C421.527 94.8879 422.119 94.2959 422.85 94.2959C423.581 94.2959 424.173 94.8879 424.173 95.6189Z" fill="#28292A"/>
<path d="M172.754 68.9629C172.754 69.6939 172.162 70.2859 171.431 70.2859C170.7 70.2859 170.108 69.6939 170.108 68.9629C170.108 68.2319 170.7 67.6399 171.431 67.6399C172.162 67.6399 172.754 68.2319 172.754 68.9629Z" fill="#28292A"/>
<path d="M277.695 138.266C278.426 138.266 279.018 137.674 279.018 136.943C279.018 136.212 278.426 135.62 277.695 135.62C276.964 135.62 276.372 136.212 276.372 136.943C276.372 137.674 276.964 138.266 277.695 138.266Z" fill="#28292A"/>
</g>
<path d="M141.233 138.271C153.334 138.271 163.143 128.461 163.143 116.361C163.143 104.26 153.334 94.4509 141.233 94.4509C129.133 94.4509 119.323 104.26 119.323 116.361C119.323 128.461 129.133 138.271 141.233 138.271Z" fill="#28292A"/>
<path opacity="0.7" d="M141.233 138.271C153.334 138.271 163.143 128.461 163.143 116.361C163.143 104.26 153.334 94.4509 141.233 94.4509C129.133 94.4509 119.323 104.26 119.323 116.361C119.323 128.461 129.133 138.271 141.233 138.271Z" fill="white"/>
<path opacity="0.2" d="M133.682 99.8298C130.611 99.8298 127.696 100.465 125.041 101.6C121.491 105.493 119.325 110.678 119.325 116.362C119.325 128.459 129.132 138.266 141.229 138.266C144.31 138.266 147.246 137.631 149.912 136.486C149.912 136.486 149.912 136.486 149.912 136.476C153.441 132.582 155.596 127.418 155.596 121.745C155.597 109.637 145.79 99.8298 133.682 99.8298Z" fill="#28292A"/>
<path opacity="0.2" d="M131.504 105.623C131.504 106.729 130.607 107.626 129.501 107.626C128.395 107.626 127.498 106.729 127.498 105.623C127.498 104.517 128.395 103.62 129.501 103.62C130.607 103.62 131.504 104.517 131.504 105.623Z" fill="#28292A"/>
<path opacity="0.2" d="M155.064 103.62C155.064 104.726 154.167 105.623 153.061 105.623C151.955 105.623 151.058 104.726 151.058 103.62C151.058 102.514 151.955 101.617 153.061 101.617C154.167 101.618 155.064 102.514 155.064 103.62Z" fill="#28292A"/>
<path opacity="0.2" d="M151.058 117.901C151.058 119.711 149.591 121.179 147.78 121.179C145.97 121.179 144.502 119.711 144.502 117.901C144.502 116.091 145.969 114.623 147.78 114.623C149.59 114.623 151.058 116.091 151.058 117.901Z" fill="#28292A"/>
<path opacity="0.2" d="M140.642 127.246C140.642 129.666 138.68 131.627 136.261 131.627C133.841 131.627 131.88 129.665 131.88 127.246C131.88 124.826 133.842 122.865 136.261 122.865C138.68 122.865 140.642 124.827 140.642 127.246Z" fill="#28292A"/>
<path d="M400.907 380.703C403.347 370.37 396.948 360.015 386.614 357.575C376.281 355.134 365.926 361.533 363.486 371.867C361.045 382.201 367.444 392.556 377.778 394.996C388.112 397.436 398.467 391.037 400.907 380.703Z" fill="#28292A"/>
<path opacity="0.3" d="M400.907 380.703C403.347 370.37 396.948 360.015 386.614 357.575C376.281 355.134 365.926 361.533 363.486 371.867C361.045 382.201 367.444 392.556 377.778 394.996C388.112 397.436 398.467 391.037 400.907 380.703Z" fill="white"/>
<path opacity="0.4" d="M394.333 361.339C392.584 360.808 390.721 360.527 388.795 360.527C378.176 360.527 369.566 369.137 369.566 379.755C369.566 385.773 372.325 391.134 376.656 394.663C378.405 395.194 380.268 395.475 382.195 395.475C392.814 395.475 401.423 386.865 401.423 376.247C401.423 370.23 398.664 364.858 394.333 361.339Z" fill="#28292A"/>
<path d="M363.83 381.948C343.296 391.61 358.614 399.057 387.542 388.661C414.326 379.035 424.509 366.892 400.594 370.655C401.828 375.763 368.282 388.834 363.83 381.948Z" fill="#28292A"/>
<path opacity="0.2" d="M394.097 187.83C367.207 206 332.397 229.96 322.787 287.64H320.737C330.087 230.66 363.627 206.07 390.527 187.83H394.097Z" fill="black"/>
<path d="M255.019 368.267C238.049 368.268 221.21 360.605 213.033 348.081C207.98 340.342 202.113 324.131 219.588 302.503L221.144 303.761C208.782 319.06 206.496 334.411 214.708 346.988C224.702 362.297 248.304 369.994 268.438 364.516C289.066 358.903 301.59 340.959 302.799 315.288C306.934 227.481 353.583 200.433 387.645 180.683C408.807 168.413 424.097 159.547 420.736 140.845C420.27 138.25 419.235 136.457 417.573 135.364C413.22 132.496 404.72 134.478 394.879 136.772C375.573 141.269 349.133 147.429 333.382 120.638L335.106 119.624C350.112 145.147 374.683 139.424 394.425 134.823C404.715 132.427 413.602 130.356 418.673 133.692C420.818 135.104 422.137 137.328 422.705 140.491C426.314 160.573 409.692 170.211 388.648 182.413C354.984 201.932 308.88 228.664 304.796 315.381C303.544 341.977 290.483 360.589 268.962 366.445C264.427 367.679 259.716 368.266 255.019 368.267Z" fill="#28292A"/>
<path opacity="0.2" d="M255.019 368.267C238.049 368.268 221.21 360.605 213.033 348.081C207.98 340.342 202.113 324.131 219.588 302.503L221.144 303.761C208.782 319.06 206.496 334.411 214.708 346.988C224.702 362.297 248.304 369.994 268.438 364.516C289.066 358.903 301.59 340.959 302.799 315.288C306.934 227.481 353.583 200.433 387.645 180.683C408.807 168.413 424.097 159.547 420.736 140.845C420.27 138.25 419.235 136.457 417.573 135.364C413.22 132.496 404.72 134.478 394.879 136.772C375.573 141.269 349.133 147.429 333.382 120.638L335.106 119.624C350.112 145.147 374.683 139.424 394.425 134.823C404.715 132.427 413.602 130.356 418.673 133.692C420.818 135.104 422.137 137.328 422.705 140.491C426.314 160.573 409.692 170.211 388.648 182.413C354.984 201.932 308.88 228.664 304.796 315.381C303.544 341.977 290.483 360.589 268.962 366.445C264.427 367.679 259.716 368.266 255.019 368.267Z" fill="white"/>
<path d="M312.758 96.9491C319.613 96.8241 326.34 99.0831 326.34 99.0831C326.34 99.0831 337.305 117.854 338.642 122.15C338.181 126.39 331.027 133.341 331.027 133.341L312.758 96.9491Z" fill="#28292A"/>
<path opacity="0.3" d="M312.758 96.9491C319.613 96.8241 326.34 99.0831 326.34 99.0831C326.34 99.0831 337.305 117.854 338.642 122.15C338.181 126.39 331.027 133.341 331.027 133.341L312.758 96.9491Z" fill="white"/>
<path d="M345.338 188.133C341.202 182.885 337.141 177.539 333.779 171.748C332.939 170.301 332.143 168.827 331.39 167.333C330.962 166.484 330.548 165.628 330.146 164.766C329.795 164.013 329.02 162.904 328.942 162.082C327.741 149.41 332.079 140.082 327.914 129.91L311.443 136.347C311.443 136.347 312.844 154.469 316.041 165.31C318.025 172.036 322.516 177.859 326.844 183.247C328.198 184.933 329.503 186.657 330.854 188.345C332.133 189.943 333.566 191.409 334.848 192.999C336.795 195.412 337.443 197.715 335.963 200.56C335.884 200.712 335.801 200.863 335.716 201.013C335.296 201.754 337.262 202.594 338.497 201.034C340.539 198.453 340.218 198.612 341.959 196.411C343.016 195.075 344.23 193.632 345.278 192.378C346.302 191.155 346.325 189.385 345.338 188.133Z" fill="#28292A"/>
<path opacity="0.7" d="M345.338 188.133C341.202 182.885 337.141 177.539 333.779 171.748C332.939 170.301 332.143 168.827 331.39 167.333C330.962 166.484 330.548 165.628 330.146 164.766C329.795 164.013 329.02 162.904 328.942 162.082C327.741 149.41 332.079 140.082 327.914 129.91L311.443 136.347C311.443 136.347 312.844 154.469 316.041 165.31C318.025 172.036 322.516 177.859 326.844 183.247C328.198 184.933 329.503 186.657 330.854 188.345C332.133 189.943 333.566 191.409 334.848 192.999C336.795 195.412 337.443 197.715 335.963 200.56C335.884 200.712 335.801 200.863 335.716 201.013C335.296 201.754 337.262 202.594 338.497 201.034C340.539 198.453 340.218 198.612 341.959 196.411C343.016 195.075 344.23 193.632 345.278 192.378C346.302 191.155 346.325 189.385 345.338 188.133Z" fill="white"/>
<path opacity="0.3" d="M341.311 182.918C339.106 185.583 334.623 189.04 332.647 190.441C333.077 190.92 333.503 191.409 333.93 191.898C337.998 189.241 341.214 185.794 342.434 184.394C342.057 183.909 341.684 183.413 341.311 182.918Z" fill="#28292A"/>
<path opacity="0.3" d="M345.334 188.135C345.296 188.083 345.256 188.041 345.218 187.99C344.524 188.713 344.035 189.866 343.953 191.16C343.887 192.054 344.037 192.872 344.33 193.511C344.663 193.125 344.974 192.743 345.279 192.38C346.307 191.156 346.321 189.387 345.334 188.135Z" fill="#28292A"/>
<path d="M308.842 108.951C307.119 111.457 305.088 113.927 302.467 116.145C301.166 117.26 299.681 118.269 298.05 119.125C297.227 119.545 296.362 119.909 295.467 120.21L294.792 120.427L294.574 120.495C294.416 120.543 294.257 120.586 294.097 120.624C293.795 120.692 293.492 120.738 293.224 120.76C292.141 120.842 291.356 120.688 290.709 120.527C289.432 120.179 288.579 119.714 287.772 119.263C286.977 118.804 286.279 118.334 285.618 117.849C284.316 116.858 283.138 115.863 282.04 114.801C279.83 112.691 277.87 110.503 276.05 108.066C275.22 106.955 275.448 105.382 276.559 104.553C277.416 103.912 278.549 103.902 279.402 104.441L279.478 104.49C281.838 105.988 284.219 107.568 286.542 108.982C287.715 109.674 288.861 110.37 289.988 110.912C290.542 111.192 291.085 111.447 291.575 111.628C292.052 111.814 292.528 111.92 292.652 111.895C292.704 111.892 292.642 111.821 292.274 111.834C292.185 111.839 292.059 111.851 291.931 111.879C291.857 111.893 291.785 111.912 291.713 111.935C291.644 111.958 291.742 111.916 291.748 111.91L292.079 111.741C292.519 111.517 292.941 111.237 293.369 110.952C294.225 110.373 295.04 109.638 295.872 108.832C297.518 107.197 299.102 105.162 300.774 103.046L300.796 103.017C302.508 100.849 305.654 100.48 307.822 102.192C309.898 103.831 310.315 106.8 308.842 108.951Z" fill="#28292A"/>
<path opacity="0.7" d="M308.842 108.951C307.119 111.457 305.088 113.927 302.467 116.145C301.166 117.26 299.681 118.269 298.05 119.125C297.227 119.545 296.362 119.909 295.467 120.21L294.792 120.427L294.574 120.495C294.416 120.543 294.257 120.586 294.097 120.624C293.795 120.692 293.492 120.738 293.224 120.76C292.141 120.842 291.356 120.688 290.709 120.527C289.432 120.179 288.579 119.714 287.772 119.263C286.977 118.804 286.279 118.334 285.618 117.849C284.316 116.858 283.138 115.863 282.04 114.801C279.83 112.691 277.87 110.503 276.05 108.066C275.22 106.955 275.448 105.382 276.559 104.553C277.416 103.912 278.549 103.902 279.402 104.441L279.478 104.49C281.838 105.988 284.219 107.568 286.542 108.982C287.715 109.674 288.861 110.37 289.988 110.912C290.542 111.192 291.085 111.447 291.575 111.628C292.052 111.814 292.528 111.92 292.652 111.895C292.704 111.892 292.642 111.821 292.274 111.834C292.185 111.839 292.059 111.851 291.931 111.879C291.857 111.893 291.785 111.912 291.713 111.935C291.644 111.958 291.742 111.916 291.748 111.91L292.079 111.741C292.519 111.517 292.941 111.237 293.369 110.952C294.225 110.373 295.04 109.638 295.872 108.832C297.518 107.197 299.102 105.162 300.774 103.046L300.796 103.017C302.508 100.849 305.654 100.48 307.822 102.192C309.898 103.831 310.315 106.8 308.842 108.951Z" fill="white"/>
<path d="M272.285 102.416L273.457 104.382C273.457 104.382 274.352 106.998 276.143 107.482L280.997 105.91L280.754 105.502C280.756 105.503 280.759 105.503 280.761 105.503C280.139 104.556 280.206 102.73 280.425 101.211C280.643 99.6922 279.855 99.6382 279.273 100.016C278.937 100.234 278.699 100.927 278.426 101.674C278.187 101.345 277.931 101.028 277.642 100.74L276.159 99.2632C275.519 98.6262 274.494 98.5972 273.819 99.1972L272.617 100.265C272.005 100.809 271.866 101.712 272.285 102.416Z" fill="#28292A"/>
<path opacity="0.7" d="M272.285 102.416L273.457 104.382C273.457 104.382 274.352 106.998 276.143 107.482L280.997 105.91L280.754 105.502C280.756 105.503 280.759 105.503 280.761 105.503C280.139 104.556 280.206 102.73 280.425 101.211C280.643 99.6922 279.855 99.6382 279.273 100.016C278.937 100.234 278.699 100.927 278.426 101.674C278.187 101.345 277.931 101.028 277.642 100.74L276.159 99.2632C275.519 98.6262 274.494 98.5972 273.819 99.1972L272.617 100.265C272.005 100.809 271.866 101.712 272.285 102.416Z" fill="white"/>
<path d="M317.674 95.224C313.025 96.352 306.638 99.005 302.325 101.692C300.796 102.644 300.033 104.452 300.393 106.217C302.317 115.657 306.707 128.302 311.446 136.346L333.557 127.199C333.709 123.299 328.341 110.679 322.873 98.482C321.891 96.288 320.01 94.658 317.674 95.224Z" fill="#28292A"/>
<path opacity="0.8" d="M317.674 95.224C313.025 96.352 306.638 99.005 302.325 101.692C300.796 102.644 300.033 104.452 300.393 106.217C302.317 115.657 306.707 128.302 311.446 136.346L333.557 127.199C333.709 123.299 328.341 110.679 322.873 98.482C321.891 96.288 320.01 94.658 317.674 95.224Z" fill="white"/>
<path opacity="0.3" d="M326.296 106.214L321.908 104.743C322.89 107.31 326.441 110.564 328.938 112.475C328.115 110.469 327.223 108.372 326.296 106.214Z" fill="#28292A"/>
<path d="M316.217 85.3201C314.392 81.8391 310.442 80.0871 305.7 80.4831C301.702 80.8171 298.157 84.8991 298.578 87.1051C298.998 89.3111 302.362 90.2451 302.971 91.0111L300.199 93.0211C298.819 94.0221 298.549 95.9681 299.603 97.3081C300.77 98.7901 302.305 100.338 303.2 101.431C310.864 101.232 316.533 98.3081 318.575 95.4951C317.841 91.9161 318.032 88.7821 316.217 85.3201Z" fill="#28292A"/>
<path opacity="0.8" d="M316.217 85.3201C314.392 81.8391 310.442 80.0871 305.7 80.4831C301.702 80.8171 298.157 84.8991 298.578 87.1051C298.998 89.3111 302.362 90.2451 302.971 91.0111L300.199 93.0211C298.819 94.0221 298.549 95.9681 299.603 97.3081C300.77 98.7901 302.305 100.338 303.2 101.431C310.864 101.232 316.533 98.3081 318.575 95.4951C317.841 91.9161 318.032 88.7821 316.217 85.3201Z" fill="white"/>
<path d="M312.46 87.476C313.982 91.372 312.059 95.764 308.163 97.286C304.267 98.808 299.875 96.885 298.353 92.989C296.831 89.094 298.754 84.701 302.65 83.179C306.545 81.657 310.937 83.581 312.46 87.476Z" fill="#263238"/>
<path d="M377.387 177.596C377.276 174.307 377.134 174.636 377.038 171.832C376.98 170.129 376.973 168.243 376.962 166.609C376.951 165.014 375.824 163.649 374.261 163.332C372.936 163.063 371.607 162.807 370.284 162.525C368.558 162.157 366.852 161.761 365.157 161.269C363.843 160.887 362.54 160.466 361.252 160.002C359.872 159.505 358.511 158.96 357.163 158.382C355.587 157.706 354.03 156.986 352.485 156.244C350.76 155.416 349.048 154.56 347.342 153.693C340.761 142.798 340.619 135.619 333.556 127.198L318.396 134.056C318.396 134.056 329.535 153.821 337.121 162.201C341.488 167.024 348.339 169.198 354.449 170.776C358.857 171.914 363.327 172.785 367.802 173.607C369.542 173.926 371.433 174.05 372.93 175.089C374.109 175.907 374.719 177.184 375.067 178.541C375.138 178.818 375.198 179.098 375.252 179.38C375.412 180.217 377.455 179.585 377.387 177.596Z" fill="#28292A"/>
<path opacity="0.8" d="M377.387 177.596C377.276 174.307 377.134 174.636 377.038 171.832C376.98 170.129 376.973 168.243 376.962 166.609C376.951 165.014 375.824 163.649 374.261 163.332C372.936 163.063 371.607 162.807 370.284 162.525C368.558 162.157 366.852 161.761 365.157 161.269C363.843 160.887 362.54 160.466 361.252 160.002C359.872 159.505 358.511 158.96 357.163 158.382C355.587 157.706 354.03 156.986 352.485 156.244C350.76 155.416 349.048 154.56 347.342 153.693C340.761 142.798 340.619 135.619 333.556 127.198L318.396 134.056C318.396 134.056 329.535 153.821 337.121 162.201C341.488 167.024 348.339 169.198 354.449 170.776C358.857 171.914 363.327 172.785 367.802 173.607C369.542 173.926 371.433 174.05 372.93 175.089C374.109 175.907 374.719 177.184 375.067 178.541C375.138 178.818 375.198 179.098 375.252 179.38C375.412 180.217 377.455 179.585 377.387 177.596Z" fill="white"/>
<path opacity="0.3" d="M369.7 162.4C369.103 162.269 368.497 162.135 367.894 161.992C367.941 165.445 366.322 171.409 365.727 173.216C366.358 173.335 366.998 173.457 367.629 173.577C369.384 168.832 369.66 163.809 369.7 162.4Z" fill="#28292A"/>
<path opacity="0.3" d="M376.961 166.61C376.95 165.011 375.827 163.649 374.267 163.329C373.953 163.265 373.629 163.197 373.312 163.143C373.378 164.083 373.963 165.174 374.941 166.04C375.582 166.618 376.307 167.002 376.973 167.183C376.963 166.984 376.962 166.797 376.961 166.61Z" fill="#28292A"/>
<path d="M311.046 87.5401C311.451 89.0561 309.754 90.6501 308.396 89.3391C307.294 88.2751 305.634 86.4931 304.279 85.6461C302.887 84.7751 304.743 83.2591 306.929 83.8471C308.97 84.3971 310.641 86.0231 311.046 87.5401Z" fill="white"/>
<path d="M311.161 135.86C310.456 136.12 311.744 137.316 311.744 137.316C311.744 137.316 325.714 132.529 334.239 127.6C334.311 126.569 333.561 126.022 333.561 126.022C333.561 126.022 323.189 131.426 311.161 135.86Z" fill="#28292A"/>
<path opacity="0.5" d="M311.161 135.86C310.456 136.12 311.744 137.316 311.744 137.316C311.744 137.316 325.714 132.529 334.239 127.6C334.311 126.569 333.561 126.022 333.561 126.022C333.561 126.022 323.189 131.426 311.161 135.86Z" fill="white"/>
<path d="M321.46 94.5632C324.218 95.9562 326.814 97.4312 329.407 99.0642C330.698 99.8772 331.983 100.712 333.249 101.613C334.525 102.496 335.784 103.427 337.047 104.475L337.521 104.863L338.112 105.396C338.532 105.766 338.84 106.107 339.149 106.447C339.473 106.798 339.74 107.136 340.003 107.473C340.276 107.812 340.535 108.149 340.768 108.481C341.757 109.809 342.563 111.16 343.354 112.5C344.891 115.217 346.222 117.93 347.32 120.849C347.81 122.151 347.152 123.603 345.849 124.094C344.871 124.462 343.807 124.182 343.131 123.468L343.082 123.414C341.073 121.286 339.146 119.041 337.207 116.956C335.31 114.877 333.295 112.743 331.67 111.815C329.4 110.399 326.872 108.993 324.36 107.608L316.797 103.41L316.778 103.4C314.363 102.06 313.492 99.0161 314.832 96.6011C316.141 94.2461 319.077 93.3632 321.46 94.5632Z" fill="#28292A"/>
<path opacity="0.8" d="M321.46 94.5632C324.218 95.9562 326.814 97.4312 329.407 99.0642C330.698 99.8772 331.983 100.712 333.249 101.613C334.525 102.496 335.784 103.427 337.047 104.475L337.521 104.863L338.112 105.396C338.532 105.766 338.84 106.107 339.149 106.447C339.473 106.798 339.74 107.136 340.003 107.473C340.276 107.812 340.535 108.149 340.768 108.481C341.757 109.809 342.563 111.16 343.354 112.5C344.891 115.217 346.222 117.93 347.32 120.849C347.81 122.151 347.152 123.603 345.849 124.094C344.871 124.462 343.807 124.182 343.131 123.468L343.082 123.414C341.073 121.286 339.146 119.041 337.207 116.956C335.31 114.877 333.295 112.743 331.67 111.815C329.4 110.399 326.872 108.993 324.36 107.608L316.797 103.41L316.778 103.4C314.363 102.06 313.492 99.0161 314.832 96.6011C316.141 94.2461 319.077 93.3632 321.46 94.5632Z" fill="white"/>
<path d="M349.733 125.738L348.884 123.613C348.884 123.613 348.41 120.889 346.717 120.13L341.677 120.922L341.853 121.363C341.851 121.362 341.849 121.361 341.846 121.361C342.312 122.393 341.959 124.187 341.505 125.652C341.051 127.118 341.821 127.295 342.455 127.013C342.821 126.85 343.165 126.203 343.551 125.508C343.736 125.871 343.939 126.224 344.179 126.553L345.412 128.244C345.944 128.973 346.952 129.163 347.713 128.676L349.067 127.809C349.758 127.368 350.038 126.499 349.733 125.738Z" fill="#28292A"/>
<path opacity="0.8" d="M349.733 125.738L348.884 123.613C348.884 123.613 348.41 120.889 346.717 120.13L341.677 120.922L341.853 121.363C341.851 121.362 341.849 121.361 341.846 121.361C342.312 122.393 341.959 124.187 341.505 125.652C341.051 127.118 341.821 127.295 342.455 127.013C342.821 126.85 343.165 126.203 343.551 125.508C343.736 125.871 343.939 126.224 344.179 126.553L345.412 128.244C345.944 128.973 346.952 129.163 347.713 128.676L349.067 127.809C349.758 127.368 350.038 126.499 349.733 125.738Z" fill="white"/>
<path opacity="0.3" d="M317.235 106.057L316.016 106.156L308.531 124.24C308.971 124.27 309.375 124.233 309.749 124.141C309.749 124.141 319.509 120.504 322.463 119.171C320.475 115.051 317.235 106.057 317.235 106.057Z" fill="#28292A"/>
<path d="M303.567 110.802C303.984 114.059 306.426 120.981 308.532 124.24C312.187 122.98 318.292 120.603 321.246 119.27C319.257 115.151 317.163 109.475 316.017 106.157C312.868 106.366 306.005 108.951 303.567 110.802Z" fill="white"/>
<path opacity="0.3" d="M310.999 114.713C310.591 116.078 309.153 116.853 307.789 116.444C306.425 116.035 305.649 114.598 306.058 113.234C306.467 111.869 307.904 111.094 309.268 111.503C310.632 111.911 311.407 113.348 310.999 114.713Z" fill="#28292A"/>
<path opacity="0.6" d="M312.912 111.268C312.778 111.715 312.307 111.969 311.86 111.835C311.413 111.701 311.159 111.23 311.292 110.783C311.426 110.336 311.897 110.082 312.344 110.216C312.792 110.349 313.046 110.82 312.912 111.268Z" fill="#28292A"/>
<path opacity="0.6" d="M315.145 110.399C315.011 110.846 314.54 111.1 314.093 110.966C313.646 110.832 313.392 110.361 313.526 109.914C313.66 109.467 314.131 109.213 314.578 109.347C315.025 109.481 315.279 109.952 315.145 110.399Z" fill="#28292A"/>
<path opacity="0.5" d="M318.29 118.187L309.043 121.841L308.484 120.023L317.731 116.368L318.29 118.187Z" fill="#28292A"/>
<path opacity="0.2" d="M267.257 257.17C267.057 264.71 266.497 270.5 265.577 274.52C264.397 279.66 262.567 283.42 260.077 285.8C257.597 288.18 254.657 289.37 251.267 289.37C246.127 289.37 242.197 286.57 239.497 280.96C239.057 280.05 238.657 279.01 238.287 277.85C232.577 282.76 227.257 288.12 222.367 293.88L217.057 300.14C219.927 303.05 223.187 305.44 226.827 307.33C233.057 310.55 241.227 312.17 251.347 312.17C253.127 312.17 254.847 312.12 256.517 312.02C262.637 302.96 267.707 293.22 271.617 283L286.467 244.28L267.257 257.17Z" fill="black"/>
<path d="M133.388 309.958C138.985 315.555 150.89 327.46 150.89 327.46L199.901 281.293C183.035 274.881 150.159 293.188 133.388 309.958Z" fill="#263238"/>
<path d="M194.422 370.992C188.825 365.395 176.92 353.49 176.92 353.49L223.087 304.48C229.499 321.345 211.193 354.221 194.422 370.992Z" fill="#263238"/>
<path d="M261.399 260.699L280.49 223.89L243.681 242.981C231.855 249.115 220.937 256.858 211.237 265.989L148.49 325.059L179.32 355.889L238.39 293.142C247.522 283.443 255.265 272.525 261.399 260.699Z" fill="#28292A"/>
<path opacity="0.6" d="M261.399 260.699L280.49 223.89L243.681 242.981C231.855 249.115 220.937 256.858 211.237 265.989L148.49 325.059L179.32 355.889L238.39 293.142C247.522 283.443 255.265 272.525 261.399 260.699Z" fill="white"/>
<path d="M222.198 295.082C229.322 295.082 235.097 289.307 235.097 282.183C235.097 275.059 229.322 269.284 222.198 269.284C215.074 269.284 209.299 275.059 209.299 282.183C209.299 289.307 215.074 295.082 222.198 295.082Z" fill="white"/>
<path d="M222.197 290.468C226.773 290.468 230.482 286.759 230.482 282.183C230.482 277.607 226.773 273.898 222.197 273.898C217.621 273.898 213.912 277.607 213.912 282.183C213.912 286.759 217.621 290.468 222.197 290.468Z" fill="#28292A"/>
<path opacity="0.3" d="M189.746 344.816L159.564 314.635L184.275 291.371L213.009 320.105L189.746 344.816Z" fill="#28292A"/>
<path d="M140.22 337.616C117.615 339.455 110.127 353.922 107.573 373.155C106.271 382.964 105.693 392.888 97.456 398.63C95.17 400.224 96.305 403.777 99.091 403.69C129.43 402.743 143.581 387.886 145.358 381.665C144.746 385.598 143.854 388.7 142.866 391.14C141.85 393.647 144.603 395.967 146.895 394.531C155.412 389.195 166.094 379.376 166.804 363.453C160.507 354.603 140.22 337.616 140.22 337.616Z" fill="#28292A"/>
<path opacity="0.2" d="M140.22 337.616C117.615 339.455 110.127 353.922 107.573 373.155C106.271 382.964 105.693 392.888 97.456 398.63C95.17 400.224 96.305 403.777 99.091 403.69C129.43 402.743 143.581 387.886 145.358 381.665C144.746 385.598 143.854 388.7 142.866 391.14C141.85 393.647 144.603 395.967 146.895 394.531C155.412 389.195 166.094 379.376 166.804 363.453C160.507 354.603 140.22 337.616 140.22 337.616Z" fill="white"/>
<path d="M170.276 370.3L134.08 334.104L153.363 329.933L174.448 351.017L170.276 370.3Z" fill="#28292A"/>
</svg>
